<svg width="18" height="18" viewBox="0 0 18 18" fill="none" xmlns="http://www.w3.org/2000/svg">
<path fill-rule="evenodd" clip-rule="evenodd" d="M12.8481 14.0266C11.565 15.053 9.93752 15.6667 8.16667 15.6667C4.02454 15.6667 0.666672 12.3088 0.666672 8.16669C0.666672 4.02455 4.02454 0.666687 8.16667 0.666687C12.3088 0.666687 15.6667 4.02455 15.6667 8.16669C15.6667 9.93753 15.0529 11.565 14.0266 12.8481L17.0893 15.9108C17.4147 16.2362 17.4147 16.7638 17.0893 17.0893C16.7638 17.4147 16.2362 17.4147 15.9107 17.0893L12.8481 14.0266ZM8.16667 14C11.3883 14 14 11.3883 14 8.16669C14 4.94503 11.3883 2.33335 8.16667 2.33335C4.94501 2.33335 2.33334 4.94503 2.33334 8.16669C2.33334 11.3883 4.94501 14 8.16667 14Z" fill="#2B2D33"/>
</svg>
